<svg xmlns="http://www.w3.org/2000/svg" width="512" height="512" viewBox="0 0 512 512" fill="none">
<defs>
<linearGradient id="paint0_linear_11_2" x1="73" y1="255" x2="146" y2="255" gradientUnits="userSpaceOnUse"><stop stop-color="#7C3AED"/><stop offset="1" stop-color="#2563EB"/></linearGradient>
<radialGradient id="paint1_radial_11_2" cx="0" cy="0" r="1" gradientUnits="userSpaceOnUse" gradientTransform="translate(110 255) rotate(0) scale(100)"><stop stop-color="#7C3AED"/><stop offset="1" stop-color="#2563EB"/></radialGradient>
<linearGradient id="paint2_linear_11_2" x1="228" y1="255" x2="292" y2="255" gradientUnits="userSpaceOnUse"><stop stop-color="#7C3AED"/><stop offset="1" stop-color="#2563EB"/></linearGradient>
<radialGradient id="paint3_radial_11_2" cx="0" cy="0" r="1" gradientUnits="userSpaceOnUse" gradientTransform="translate(259 256) rotate(90) scale(89)"><stop stop-color="#7C3AED"/><stop offset="1" stop-color="#2563EB"/></radialGradient>
<radialGradient id="paint4_radial_11_2" cx="0" cy="0" r="1" gradientUnits="userSpaceOnUse" gradientTransform="translate(399.5 255.5) rotate(90) scale(97.5)"><stop stop-color="#7C3AED"/><stop offset="1" stop-color="#2563EB"/></radialGradient>
<clipPath id="clip0_11_2"><rect width="512" height="512" fill="white"/></clipPath>
</defs>
<g clip-path="url(#clip0_11_2)">
<path fill-rule="evenodd" clip-rule="evenodd" d="M89.0464 248.797C77.1634 245.613 70.1115 233.399 73.2956 221.516C73.9133 219.211 74.8709 217.087 76.1001 215.185C77.0153 213.768 79.0413 213.969 79.8844 215.429L89.308 231.751C89.7644 232.542 90.6216 233.034 91.5264 232.913C95.4032 232.395 98.9418 230.353 101.331 227.256C101.888 226.533 101.891 225.544 101.434 224.753L92.009 208.428C91.1658 206.968 92.0052 205.113 93.6893 205.028C95.952 204.915 98.2706 205.147 100.577 205.765C112.46 208.949 119.512 221.163 116.328 233.046C116.202 233.514 116.063 233.974 115.91 234.427C114.525 238.529 114.204 243.232 116.7 246.77L143.549 284.838C145.855 288.109 146.59 292.234 145.554 296.1C143.626 303.293 136.233 307.562 129.039 305.635C125.174 304.599 121.968 301.9 120.289 298.267L100.745 255.982C98.9287 252.051 94.696 249.978 90.4506 249.126C89.9824 249.032 89.5141 248.923 89.0464 248.797ZM126.782 289.656C126.075 292.297 127.642 295.011 130.282 295.719C132.923 296.426 135.637 294.859 136.345 292.218C137.052 289.578 135.485 286.864 132.845 286.156C130.204 285.448 127.49 287.016 126.782 289.656Z" fill="url(#paint0_linear_11_2)"/>
<path d="M182.679 307.756C171.54 322.89 155.896 334.111 137.989 339.809C120.082 345.508 100.83 345.392 82.9931 339.479C65.1558 333.565 49.6481 322.157 38.6919 306.89C27.7356 291.622 21.8931 273.278 22.0015 254.487C22.1099 235.695 28.1636 217.42 39.2953 202.28C50.4269 187.14 66.0652 175.912 83.9695 170.204C101.874 164.497 121.125 164.603 138.965 170.508C156.805 176.413 172.319 187.813 183.283 203.075" stroke="url(#paint1_radial_11_2)" stroke-width="18"/>
<path fill-rule="evenodd" clip-rule="evenodd" d="M227.562 229.317C227.562 223.435 233.87 219.705 239.024 222.54L286.629 248.723C291.972 251.662 291.972 259.339 286.629 262.277L239.024 288.46C233.87 291.295 227.562 287.566 227.562 281.683V229.317Z" fill="url(#paint2_linear_11_2)"/>
<circle cx="259" cy="256" r="89" stroke="url(#paint3_radial_11_2)" stroke-width="18"/>
<path fill-rule="evenodd" clip-rule="evenodd" d="M399.5 353C453.348 353 497 309.348 497 255.5C497 201.652 453.348 158 399.5 158C345.652 158 302 201.652 302 255.5C302 309.348 345.652 353 399.5 353ZM439.719 208.188C418.865 208.188 400.307 218.017 388.424 233.283C386.992 233.055 385.524 232.938 384.031 232.938C368.654 232.938 356.188 245.404 356.188 260.781C356.188 262.49 357.573 263.875 359.281 263.875H376.325C376.353 263.914 376.383 263.953 376.413 263.992C379.527 267.919 383.085 271.477 387.012 274.591C387.026 274.602 387.04 274.613 387.054 274.623C387.06 274.628 387.067 274.633 387.074 274.638C387.091 274.651 387.108 274.664 387.125 274.676V291.719C387.125 293.427 388.51 294.812 390.219 294.812C405.596 294.812 418.062 282.346 418.062 266.969C418.062 265.477 417.945 264.011 417.718 262.579C432.984 250.696 442.813 232.136 442.813 211.281C442.813 210.461 442.487 209.674 441.906 209.094C441.326 208.513 440.539 208.187 439.719 208.188ZM402.594 239.125C402.594 233.999 406.749 229.844 411.875 229.844C417.001 229.844 421.156 233.999 421.156 239.125C421.156 244.251 417.001 248.406 411.875 248.406C406.749 248.406 402.594 244.251 402.594 239.125ZM372.329 268.793C373.351 270.162 373.069 272.101 371.699 273.123C367.911 275.948 365.469 280.454 365.469 285.531C370.546 285.531 375.052 283.088 377.877 279.301C378.899 277.931 380.837 277.649 382.207 278.671C383.576 279.692 383.858 281.631 382.837 283C378.894 288.286 372.582 291.718 365.469 291.718C364.332 291.718 363.214 291.631 362.121 291.461C360.79 291.254 359.746 290.21 359.539 288.879C359.369 287.786 359.281 286.668 359.281 285.531C359.281 278.418 362.714 272.106 367.999 268.163C369.369 267.141 371.307 267.423 372.329 268.793Z" fill="url(#paint4_radial_11_2)"/>
</g>
</svg>
